<svg
  width="18"
  height="17"
  viewBox="0 0 18 17"
  fill="none"
  xmlns="http://www.w3.org/2000/svg"
>
  <path
    d="M13.6205 2.19182C14.0544 1.7579 14.7038 1.70384 15.0711 2.07107C15.4383 2.43829 15.3842 3.08775 14.9503 3.52167L2.37953 16.0925C1.94562 16.5264 1.29616 16.5804 0.928933 16.2132C0.561706 15.846 0.615769 15.1965 1.04968 14.7626L13.6205 2.19182Z"
    fill="currentColor"
  />
  <path
    d="M11.1626 2.8766C11.5965 2.44268 12.2459 2.38862 12.6132 2.75584L14.3863 4.52897C14.7535 4.8962 14.6995 5.54566 14.2655 5.97957L13.7418 6.50335C13.3078 6.93727 12.6584 6.99133 12.2912 6.62411L10.518 4.85098C10.1508 4.48375 10.2049 3.83429 10.6388 3.40038L11.1626 2.8766Z"
    fill="currentColor"
  />
  <path
    d="M13.2547 3.88741C17.6818 8.31451 17.3916 12.8679 16.6931 14.5912C16.6931 14.5912 17.0281 10.5669 11.8016 5.34049C6.57521 0.114045 2.55097 0.44903 2.55097 0.44903C4.27426 -0.249469 8.82762 -0.539692 13.2547 3.88741Z"
    fill="currentColor"
  />
</svg>
